<?xml version="1.0" encoding="UTF-8"?>
<svg version="1.1" xmlns="http://www.w3.org/2000/svg" width="400" height="400">
<path d="M0 0 C132 0 264 0 400 0 C400 132 400 264 400 400 C268 400 136 400 0 400 C0 268 0 136 0 0 Z " fill="#FDFDFD" transform="translate(0,0)"/>
<path d="M0 0 C10.56 0 21.12 0 32 0 C34.48688299 8.08236973 36.86825023 16.07017562 38.9375 24.25 C40.67934031 31.0370192 42.47553934 37.79166981 44.5 44.5 C46.79082406 52.0960362 48.78083844 59.75833516 50.75634766 67.44165039 C52.97509377 76.02181119 55.42753057 84.51995697 58 93 C59.90652067 90.140219 60.64563788 88.20311871 61.55078125 84.94140625 C61.83445557 83.92594727 62.11812988 82.91048828 62.41040039 81.86425781 C62.70809326 80.77467773 63.00578613 79.68509766 63.3125 78.5625 C63.62372803 77.43811523 63.93495605 76.31373047 64.25561523 75.15527344 C66.33962578 67.57100006 68.29047636 59.96115983 70.15551758 52.32055664 C71.84571753 45.45700703 73.78133614 38.67676805 75.76098633 31.8918457 C77.82209554 24.77231707 79.64536744 17.60708308 81.3515625 10.39453125 C81.63386719 9.22277344 81.63386719 9.22277344 81.921875 8.02734375 C82.08268555 7.34406006 82.24349609 6.66077637 82.40917969 5.95678711 C83 4 83 4 85 0 C95.89 0 106.78 0 118 0 C117.67 2.64 117.34 5.28 117 8 C115.76636719 8.32871094 115.76636719 8.32871094 114.5078125 8.6640625 C106.88987732 10.8280487 100.48418178 13.44045168 94 18 C93.35289063 18.45117188 92.70578125 18.90234375 92.0390625 19.3671875 C84.7633457 24.99077647 80.51374872 32.99681345 79 42 C78.71580759 45.29745271 78.66547894 48.56649229 78.6875 51.875 C78.69313965 52.75905518 78.6987793 53.64311035 78.70458984 54.55395508 C78.88755003 64.36768602 80.87951515 71.11843992 86.6953125 79.08984375 C88 81 88 81 89 84 C88.3984375 86.7578125 88.3984375 86.7578125 87.375 90.125 C86.81425781 91.99865234 86.81425781 91.99865234 86.2421875 93.91015625 C86.03948242 94.57547363 85.83677734 95.24079102 85.62792969 95.92626953 C84.99116921 98.0291636 84.37185667 100.13646163 83.7578125 102.24609375 C81.24947394 110.85631826 78.63793722 119.42670405 76 128 C64.78 128 53.56 128 42 128 C39.8820564 123.05813161 38.01106477 118.25581748 36.3828125 113.16015625 C36.1332782 112.38921631 35.8837439 111.61827637 35.62664795 110.82397461 C35.07943478 109.13245988 34.53367698 107.44047381 33.98919678 105.74807739 C32.46349867 101.00681886 30.92623338 96.26930607 29.390625 91.53125 C29.05364594 90.49057877 28.71666687 89.44990753 28.36947632 88.37770081 C23.81016799 74.30854007 19.19247743 60.25848027 14.57900238 46.20701218 C13.64924162 43.3748012 12.71997689 40.54242759 11.79071045 37.7100544 C10.90212572 35.00187986 10.01325086 32.29380063 9.12427521 29.58575439 C8.51516101 27.73014298 7.90622808 25.87447207 7.29730225 24.01879883 C6.92188293 22.87572266 6.54646362 21.73264648 6.15966797 20.55493164 C5.80225525 19.46560333 5.44484253 18.37627502 5.07659912 17.25393677 C4.33690404 15.01826614 3.58823645 12.78555038 2.83209229 10.5553894 C2.46485046 9.47162018 2.09760864 8.38785095 1.71923828 7.27124023 C1.38852325 6.30395493 1.05780823 5.33666962 0.71707153 4.34007263 C0 2 0 2 0 0 Z " fill="#020202" transform="translate(9,147)"/>
<path d="M0 0 C1.13985352 -0.0299707 1.13985352 -0.0299707 2.30273438 -0.06054688 C9.31592049 -0.05455782 14.40220634 2.2102774 19.75 6.6875 C28.91729115 17.58914353 30.0625 25.66453074 30.0625 40.4375 C13.2325 40.4375 -3.5975 40.4375 -20.9375 40.4375 C-18.92182114 51.84688378 -18.92182114 51.84688378 -11.90659201 59.75902098 C-5.34284362 63.28161444 -0.09945371 64.1557309 7.2875061 64.07673645 C8.91740921 64.08926996 8.91740921 64.08926996 10.58023965 64.10205668 C14.1978684 64.12389132 17.81447271 64.11040777 21.43212891 64.09692383 C24.03456387 64.10538098 26.63699251 64.11602689 29.2394104 64.12869263 C34.83017405 64.15246333 40.42071734 64.15815894 46.0115242 64.15134621 C54.0946982 64.14152286 62.17762887 64.1593191 70.26076345 64.18371352 C83.37713549 64.22255431 96.49343766 64.23926316 109.60986328 64.24194336 C122.34622784 64.24459354 135.0825108 64.25773568 147.81884766 64.28491211 C148.99775705 64.28742218 148.99775705 64.28742218 150.2004828 64.28998295 C154.14357165 64.29844283 158.08666002 64.30710817 162.0297482 64.31587565 C194.70732441 64.38826889 227.38484567 64.42432688 260.0625 64.4375 C260.0625 67.7375 260.0625 71.0375 260.0625 74.4375 C226.77914915 74.50601107 193.49581796 74.5590668 160.2124122 74.59069599 C156.27857091 74.59444789 152.34472975 74.59833087 148.41088867 74.60229492 C147.2362062 74.60347532 147.2362062 74.60347532 146.03779276 74.60467956 C133.37539473 74.61771581 120.71303776 74.6413598 108.05066404 74.66895839 C95.04755114 74.69706223 82.04445967 74.71368676 69.04131764 74.71976548 C61.02459885 74.72387162 53.00799616 74.73681713 44.99131312 74.7612494 C38.83301345 74.7790562 32.67480139 74.78085309 26.51647949 74.77682304 C23.99828059 74.77764577 21.48007713 74.78357831 18.96190453 74.79511642 C-13.06200671 74.93460348 -13.06200671 74.93460348 -24.55078125 65.89453125 C-32.67503495 57.53093784 -34.23435564 47.55762168 -34.25439453 36.43603516 C-34.06865316 25.01408726 -29.99254066 16.56653301 -22.01953125 8.49609375 C-15.16650152 2.14676834 -9.21851803 -0.08557274 0 0 Z " fill="#040404" transform="translate(126.9375,160.5625)"/>
<path d="M0 0 C0 4.62 0 9.24 0 14 C48.51 14 97.02 14 147 14 C147 16.64 147 19.28 147 22 C98.49 22 49.98 22 0 22 C-2.23411256 45.47041476 -2.23411256 45.47041476 4 66 C7.41627532 66.70272776 7.41627532 66.70272776 11.1875 66.75 C13.09595703 66.83507812 13.09595703 66.83507812 15.04296875 66.921875 C16.01878906 66.94765625 16.99460938 66.9734375 18 67 C18 69.64 18 72.28 18 75 C11.73225317 77.08924894 2.91715894 77.02887403 -3.46875 75.3515625 C-7.79613306 73.13093172 -10.27137538 69.41756054 -12 65 C-12.51247643 61.6228597 -12.46844697 58.31946074 -12.390625 54.91015625 C-12.38496521 53.96563095 -12.37930542 53.02110565 -12.37347412 52.04795837 C-12.35121071 49.05227444 -12.30103331 46.05781805 -12.25 43.0625 C-12.22992202 41.02280382 -12.21167353 38.98308876 -12.1953125 36.94335938 C-12.15137883 31.96177174 -12.0824212 26.98109348 -12 22 C-15.63 22 -19.26 22 -23 22 C-23 19.36 -23 16.72 -23 14 C-19.7 14 -16.4 14 -13 14 C-13 10.04 -13 6.08 -13 2 C-8.11126518 0.43560486 -5.39277414 0 0 0 Z " fill="#020202" transform="translate(239,146)"/>
<path d="M0 0 C4.41801146 3.64674571 7.26030957 8.30436621 9.05859375 13.69921875 C9.15042317 15.23871204 9.18861727 16.7819973 9.18359375 18.32421875 C9.18746094 19.51917969 9.18746094 19.51917969 9.19140625 20.73828125 C9.05859375 22.69921875 9.05859375 22.69921875 8.05859375 23.69921875 C4.95608174 23.7879601 1.87591255 23.8144033 -1.2265625 23.796875 C-2.15738144 23.79546005 -3.08820038 23.7940451 -4.04722595 23.79258728 C-7.03281816 23.78697047 -10.01833654 23.77441515 -13.00390625 23.76171875 C-15.02278538 23.75670591 -17.04166568 23.75214263 -19.06054688 23.74804688 C-24.02086197 23.73699558 -28.98112157 23.7197197 -33.94140625 23.69921875 C-33.4998488 24.975333 -33.0487543 26.24814947 -32.59375 27.51953125 C-32.34359131 28.22867676 -32.09343262 28.93782227 -31.83569336 29.66845703 C-29.87466844 34.12158432 -26.32946151 36.86463874 -21.94140625 38.69921875 C-19.83798112 38.98676107 -19.83798112 38.98676107 -17.640625 38.9296875 C-16.82787109 38.92775391 -16.01511719 38.92582031 -15.17773438 38.92382812 C-14.33662109 38.91158203 -13.49550781 38.89933594 -12.62890625 38.88671875 C-11.38463867 38.88575195 -11.38463867 38.88575195 -10.11523438 38.88476562 C-5.29347837 38.85051479 -0.69601723 38.50127863 4.05859375 37.69921875 C4.55359375 41.16421875 4.55359375 41.16421875 5.05859375 44.69921875 C-1.0971961 46.85460735 -6.82616228 47.06583342 -13.31640625 47.07421875 C-14.30640625 47.09871094 -15.29640625 47.12320313 -16.31640625 47.1484375 C-24.40523936 47.18045135 -30.7250103 45.27532036 -37.25390625 40.44921875 C-43.41858953 34.14117074 -44.57105083 28.28617787 -44.48217773 19.56762695 C-44.21267498 13.69715399 -43.00036708 9.91192809 -38.94140625 5.69921875 C-38.4103125 5.13847656 -37.87921875 4.57773438 -37.33203125 4 C-27.73151806 -5.0940641 -11.45645732 -6.74250186 0 0 Z " fill="#0B0B0B" transform="translate(313.94140625,175.30078125)"/>
<path d="M0 0 C2.3821875 0.0309375 2.3821875 0.0309375 4.8125 0.0625 C4.8125 3.3625 4.8125 6.6625 4.8125 10.0625 C4.01585937 10.14886719 3.21921875 10.23523438 2.3984375 10.32421875 C-4.32585271 11.21588254 -8.67046475 11.85053625 -13.1875 17.0625 C-16.03119607 22.52666393 -16.65013574 26.95137534 -16.69921875 33.05859375 C-16.71716995 33.89213882 -16.73512115 34.7256839 -16.75361633 35.58448792 C-16.80740295 38.22294188 -16.84151231 40.86121828 -16.875 43.5 C-16.90820112 45.29885267 -16.94269334 47.097682 -16.97851562 48.89648438 C-17.06311075 53.28502745 -17.13007173 57.67352077 -17.1875 62.0625 C-21.4775 62.0625 -25.7675 62.0625 -30.1875 62.0625 C-30.1875 41.9325 -30.1875 21.8025 -30.1875 1.0625 C-26.5575 1.0625 -22.9275 1.0625 -19.1875 1.0625 C-19.1875 4.6925 -19.1875 8.3225 -19.1875 12.0625 C-18.5275 12.0625 -17.8675 12.0625 -17.1875 12.0625 C-17.001875 11.36125 -16.81625 10.66 -16.625 9.9375 C-13.19289491 3.07328981 -7.52710445 -0.0977546 0 0 Z " fill="#070707" transform="translate(202.1875,158.9375)"/>
<path d="M0 0 C4.35960511 3.74695185 5.85342927 6.26714636 7 12 C3.37 12 -0.26 12 -4 12 C-4.66 10.35 -5.32 8.7 -6 7 C-8.96830079 4.03818022 -11.24090995 3.56829004 -15.375 3.5625 C-20.35200082 3.71512803 -23.28809054 4.47368601 -27 8 C-29.68939326 12.46516489 -30.40914542 15.8098958 -30.375 21 C-30.38273437 22.175625 -30.39046875 23.35125 -30.3984375 24.5625 C-29.96453884 28.30593945 -28.80069134 30.72255121 -27 34 C-27 34.66 -27 35.32 -27 36 C-21.98319852 38.59489732 -17.66509774 39.58899882 -12 39 C-8.61417598 37.97485312 -8.61417598 37.97485312 -6 36 C-5.34 34.35 -4.68 32.7 -4 31 C-0.37 31 3.26 31 7 31 C6.00671463 36.51825208 4.43751651 39.27395634 -0.01953125 42.7109375 C-6.33165043 46.81941744 -12.5423552 47.85560576 -20 47 C-27.64014426 45.30219016 -33.69768378 42.24517266 -38.375 35.8125 C-42.65468116 28.23295942 -42.41514178 18.63574006 -40.33203125 10.33984375 C-37.63142224 4.21924953 -32.3433431 -0.1793009 -26.3125 -2.875 C-17.49849979 -5.7220755 -7.91520758 -4.80817228 0 0 Z " fill="#0A0A0A" transform="translate(380,176)"/>
<path d="M0 0 C4.51960404 2.52566108 6.93063559 5.42796187 9 10.1875 C9.75 13.3125 9.75 13.3125 9.75 20.3125 C-2.79 20.3125 -15.33 20.3125 -28.25 20.3125 C-25.84031231 10.67374923 -23.36914073 4.92619823 -15.25 -0.6875 C-9.81939165 -2.49770278 -5.15256228 -2.38847747 0 0 Z " fill="#F9F9F9" transform="translate(134.25,171.6875)"/>
<path d="M0 0 C2.48355297 3.20458448 2.65017334 5.32484189 2.43359375 9.30859375 C1.63966706 12.81562426 -0.24839871 14.40578509 -3.0625 16.5 C-6.79150316 17.74300105 -10.19599214 18.1711674 -14.0625 17.5 C-17.08641552 15.76092412 -19.47998661 13.66502678 -21.0625 10.5 C-21.46246563 7.56691874 -21.59715611 5.42602438 -20.0859375 2.80859375 C-14.76314308 -3.9673562 -7.35519417 -3.60254408 0 0 Z " fill="#0E0E0E" transform="translate(313.0625,252.5)"/>
<path d="M0 0 C3.1298162 2.31606399 4.64516431 3.7434845 6.125 7.3125 C6.125 8.9625 6.125 10.6125 6.125 12.3125 C-4.435 12.3125 -14.995 12.3125 -25.875 12.3125 C-23.7442515 5.92025449 -22.526278 2.82008945 -16.6875 -0.5 C-10.82141576 -2.32714099 -5.59672874 -2.90463137 0 0 Z " fill="#FAFAFA" transform="translate(305.875,179.6875)"/>
<path d="M0 0 C2.908125 -0.061875 5.81625 -0.12375 8.8125 -0.1875 C9.72491455 -0.21481201 10.6373291 -0.24212402 11.57739258 -0.27026367 C12.66250122 -0.28150269 12.66250122 -0.28150269 13.76953125 -0.29296875 C14.87711792 -0.31653442 14.87711792 -0.31653442 16.00708008 -0.34057617 C18.59390634 0.10149447 19.47525349 0.88827612 21 3 C20.82539001 7.88907977 20.52809907 9.47190093 17 13 C18.65 15.31 20.3 17.62 22 20 C19.36 20 16.72 20 14 20 C13.608125 19.05125 13.21625 18.1025 12.8125 17.125 C10.80206144 13.65872662 9.77300358 13.0197307 6 12 C6.33 14.64 6.66 17.28 7 20 C4.69 20 2.38 20 0 20 C0 13.4 0 6.8 0 0 Z " fill="#090909" transform="translate(185,250)"/>
<path d="M0 0 C2.31 0 4.62 0 7 0 C8.4375 2.0625 8.4375 2.0625 10 5 C12.56043983 7.47850576 15.26302992 9.71171354 18 12 C17.67 8.04 17.34 4.08 17 0 C18.98 0 20.96 0 23 0 C23 6.6 23 13.2 23 20 C20.69 20 18.38 20 16 20 C15.75507813 19.42765625 15.51015625 18.8553125 15.2578125 18.265625 C13.78889901 15.61975598 12.04651756 13.85146861 9.875 11.75 C8.59625 10.5125 7.3175 9.275 6 8 C6 11.96 6 15.92 6 20 C4.02 20 2.04 20 0 20 C0 13.4 0 6.8 0 0 Z " fill="#040404" transform="translate(318,250)"/>
<path d="M0 0 C2.31 0 4.62 0 7 0 C8.4375 2.0625 8.4375 2.0625 10 5 C12.56043983 7.47850576 15.26302992 9.71171354 18 12 C17.67 8.04 17.34 4.08 17 0 C18.98 0 20.96 0 23 0 C23 6.6 23 13.2 23 20 C20.69 20 18.38 20 16 20 C15.75507813 19.42765625 15.51015625 18.8553125 15.2578125 18.265625 C13.78889901 15.61975598 12.04651756 13.85146861 9.875 11.75 C8.59625 10.5125 7.3175 9.275 6 8 C6 11.96 6 15.92 6 20 C4.02 20 2.04 20 0 20 C0 13.4 0 6.8 0 0 Z " fill="#040404" transform="translate(210,250)"/>
<path d="M0 0 C6.27 0 12.54 0 19 0 C19 1.32 19 2.64 19 4 C14.71 4 10.42 4 6 4 C6 5.32 6 6.64 6 8 C10.455 7.505 10.455 7.505 15 7 C15 8.98 15 10.96 15 13 C12.03 12.67 9.06 12.34 6 12 C6 13.32 6 14.64 6 16 C10.62 15.67 15.24 15.34 20 15 C20 16.98 20 18.96 20 21 C13.4 20.67 6.8 20.34 0 20 C0 13.4 0 6.8 0 0 Z " fill="#050505" transform="translate(162,250)"/>
<path d="M0 0 C2.31 0 4.62 0 7 0 C8.4375 2.0625 8.4375 2.0625 10 5 C12.56043983 7.47850576 15.26302992 9.71171354 18 12 C17.67 8.04 17.34 4.08 17 0 C18.98 0 20.96 0 23 0 C23 6.6 23 13.2 23 20 C20.69 20 18.38 20 16 20 C15.75507813 19.42765625 15.51015625 18.8553125 15.2578125 18.265625 C13.78889901 15.61975598 12.04651756 13.85146861 9.875 11.75 C8.59625 10.5125 7.3175 9.275 6 8 C6 11.96 6 15.92 6 20 C4.02 20 2.04 20 0 20 C0 13.4 0 6.8 0 0 Z " fill="#040404" transform="translate(115,250)"/>
<path d="M0 0 C2.31 0 4.62 0 7 0 C7.0928125 0.68707031 7.185625 1.37414062 7.28125 2.08203125 C8.16389458 5.66537635 9.70710789 8.46543775 11.5 11.6875 C12.1290625 12.82574219 12.758125 13.96398437 13.40625 15.13671875 C13.9321875 16.08160156 14.458125 17.02648437 15 18 C15.33 18.66 15.66 19.32 16 20 C13.36 20 10.72 20 8 20 C8.33 18.68 8.66 17.36 9 16 C5.37 16.33 1.74 16.66 -2 17 C-2 17.99 -2 18.98 -2 20 C-4.31 20 -6.62 20 -9 20 C-8.43410156 18.97519531 -7.86820312 17.95039063 -7.28515625 16.89453125 C-6.54392459 15.53404275 -5.80305836 14.17335511 -5.0625 12.8125 C-4.68931641 12.13896484 -4.31613281 11.46542969 -3.93164062 10.77148438 C-1.99445132 7.19379242 -0.50172044 4.1013655 0 0 Z " fill="#070707" transform="translate(352,250)"/>
<path d="M0 0 C2.31 0 4.62 0 7 0 C7.0928125 0.68707031 7.185625 1.37414062 7.28125 2.08203125 C8.16389458 5.66537635 9.70710789 8.46543775 11.5 11.6875 C12.1290625 12.82574219 12.758125 13.96398437 13.40625 15.13671875 C13.9321875 16.08160156 14.458125 17.02648437 15 18 C15.33 18.66 15.66 19.32 16 20 C13.36 20 10.72 20 8 20 C8.33 18.68 8.66 17.36 9 16 C5.37 16.33 1.74 16.66 -2 17 C-2 17.99 -2 18.98 -2 20 C-4.31 20 -6.62 20 -9 20 C-8.43410156 18.97519531 -7.86820313 17.95039063 -7.28515625 16.89453125 C-6.54392459 15.53404275 -5.80305836 14.17335511 -5.0625 12.8125 C-4.68931641 12.13896484 -4.31613281 11.46542969 -3.93164062 10.77148438 C-1.99445132 7.19379242 -0.50172044 4.1013655 0 0 Z " fill="#070707" transform="translate(244,250)"/>
<path d="M0 0 C6.6 0.33 13.2 0.66 20 1 C20 2.32 20 3.64 20 5 C17.69 5 15.38 5 13 5 C13.33 10.28 13.66 15.56 14 21 C11.69 21 9.38 21 7 21 C7.33 15.72 7.66 10.44 8 5 C5.36 5.33 2.72 5.66 0 6 C0 4.02 0 2.04 0 0 Z " fill="#0C0C0C" transform="translate(260,249)"/>
<path d="M0 0 C6.6 0.33 13.2 0.66 20 1 C20 2.32 20 3.64 20 5 C17.69 5 15.38 5 13 5 C13.33 10.28 13.66 15.56 14 21 C11.69 21 9.38 21 7 21 C7.33 15.72 7.66 10.44 8 5 C5.36 5.33 2.72 5.66 0 6 C0 4.02 0 2.04 0 0 Z " fill="#0C0C0C" transform="translate(140,249)"/>
<path d="M0 0 C2.31 0 4.62 0 7 0 C6.67 5.28 6.34 10.56 6 16 C9.96 16 13.92 16 18 16 C18 17.32 18 18.64 18 20 C12.06 20 6.12 20 0 20 C0 13.4 0 6.8 0 0 Z " fill="#0A0A0A" transform="translate(370,250)"/>
<path d="M0 0 C2.64 0 5.28 0 8 0 C7.67 0.66 7.34 1.32 7 2 C6.90459888 3.49761762 6.86926514 4.99934828 6.8671875 6.5 C6.86589844 7.386875 6.86460938 8.27375 6.86328125 9.1875 C6.86714844 10.115625 6.87101562 11.04375 6.875 12 C6.87113281 12.928125 6.86726563 13.85625 6.86328125 14.8125 C6.86457031 15.699375 6.86585937 16.58625 6.8671875 17.5 C6.86831543 18.3146875 6.86944336 19.129375 6.87060547 19.96875 C6.87198497 22.06850952 6.87198497 22.06850952 8 24 C5.36 24 2.72 24 0 24 C0 16.08 0 8.16 0 0 Z " fill="#0E0E0E" transform="translate(103,246)"/>
<path d="M0 0 C2.375 1.125 2.375 1.125 4 3 C4.5 6 4.5 6 4 9 C2.4375 10.9375 2.4375 10.9375 0 12 C-3.625 11.875 -3.625 11.875 -7 11 C-9.15502531 7.76746204 -9.46856135 6.74849077 -9 3 C-6.72968663 -0.65772709 -4.03910508 -0.4945843 0 0 Z " fill="#F7F7F7" transform="translate(306,254)"/>
<path d="M0 0 C2.31 0 4.62 0 7 0 C7 6.6 7 13.2 7 20 C4.69 20 2.38 20 0 20 C0 13.4 0 6.8 0 0 Z " fill="#121212" transform="translate(282,250)"/>
<path d="M0 0 C2.97 0 5.94 0 9 0 C9 1.32 9 2.64 9 4 C6.03 4 3.06 4 0 4 C0 2.68 0 1.36 0 0 Z " fill="#FEFEFE" transform="translate(191,254)"/>
<path d="M0 0 C0.66 0 1.32 0 2 0 C2.66 1.65 3.32 3.3 4 5 C2.02 5 0.04 5 -2 5 C-1.34 3.35 -0.68 1.7 0 0 Z " fill="#EAEAEA" transform="translate(354,257)"/>
<path d="M0 0 C0.66 0 1.32 0 2 0 C2.66 1.65 3.32 3.3 4 5 C2.02 5 0.04 5 -2 5 C-1.34 3.35 -0.68 1.7 0 0 Z " fill="#EAEAEA" transform="translate(246,257)"/>
</svg>
